PathFileType	4	(X/Y/Z)	C:\Users\Basilio\Documents\Thesis Gigler\squatting_fais\c3dfiles\038\SLS_front_pre3\markers_experimental.trc
DataRate	CameraRate	NumFrames	NumMarkers	Units	OrigDataRate	OrigDataStartFrame	OrigNumFrames
200.000000	200.000000	4	61	mm	200.000000	171	1368
Frame#	Time	FHD			LBHD			RBHD			C7			T10			CLAV			LSHO			LUUPA			LMUPA			LDUPA			LLEP			LMEP			LUL			LRFIN			RSHO			RUPA1			RMUPA			RDUPA			RLEP			RMEP			RRAD			RUL			RUFIN			LASI			RASI			USACR			LSACR			RSACR			LTHI1			LTHI2			LTHI3			LTHI4			LLFC			LMFC			LTIB1			LTIB2			LTIB3			LTIB4			LLMAL			LMMAL			LHEE			LMT1			LMT2			LMT5			RTHI			RTHI2			RTHI3			RTHI4			RLFC			RMFC			RTIB1			RTIB2			RTIB3			RTIB4			RLMAL			RMMAL			RHEE			RMT1			RMT2			RMT5			LRAD			
		X1	Y1	Z1	X2	Y2	Z2	X3	Y3	Z3	X4	Y4	Z4	X5	Y5	Z5	X6	Y6	Z6	X7	Y7	Z7	X8	Y8	Z8	X9	Y9	Z9	X10	Y10	Z10	X11	Y11	Z11	X12	Y12	Z12	X13	Y13	Z13	X14	Y14	Z14	X15	Y15	Z15	X16	Y16	Z16	X17	Y17	Z17	X18	Y18	Z18	X19	Y19	Z19	X20	Y20	Z20	X21	Y21	Z21	X22	Y22	Z22	X23	Y23	Z23	X24	Y24	Z24	X25	Y25	Z25	X26	Y26	Z26	X27	Y27	Z27	X28	Y28	Z28	X29	Y29	Z29	X30	Y30	Z30	X31	Y31	Z31	X32	Y32	Z32	X33	Y33	Z33	X34	Y34	Z34	X35	Y35	Z35	X36	Y36	Z36	X37	Y37	Z37	X38	Y38	Z38	X39	Y39	Z39	X40	Y40	Z40	X41	Y41	Z41	X42	Y42	Z42	X43	Y43	Z43	X44	Y44	Z44	X45	Y45	Z45	X46	Y46	Z46	X47	Y47	Z47	X48	Y48	Z48	X49	Y49	Z49	X50	Y50	Z50	X51	Y51	Z51	X52	Y52	Z52	X53	Y53	Z53	X54	Y54	Z54	X55	Y55	Z55	X56	Y56	Z56	X57	Y57	Z57	X58	Y58	Z58	X59	Y59	Z59	X60	Y60	Z60	X61	Y61	Z61	

172	0.855	-250.9806671142579	1763.9052734375	-1093.57958984375	-404.514129638672	1716.424682617188	-1161.581665039063	-403.4405212402345	1702.563720703125	-1016.889831542969	-454.1744995117189	1528.317626953125	-1091.518676757813	-417.5915832519532	1248.18310546875	-1076.579223632813	-309.3435668945313	1522.306518554688	-1095.947631835938	-369.3791503906251	1552.1376953125	-1241.787963867188	-199.6290435791016	1487.060668945313	-1363.843627929688	-172.7723693847657	1521.137084960938	-1337.088989257813	-130.4851989746094	1493.285522460938	-1369.159057617188	-69.08303070068361	1494.94287109375	-1367.353637695313	-61.55433273315431	1420.368286132813	-1343.23828125	225.1228485107422	1498.455200195313	-1326.909301757813	286.3041381835938	1511.840942382813	-1234.71435546875	-364.7009582519532	1545.105834960938	-951.2012329101565	-213.6383972167969	1506.528930664063	-824.216491699219	-175.8913726806641	1518.936645507813	-852.8188476562502	-147.0792083740235	1500.47412109375	-802.9831542968752	-74.58577728271486	1497.726928710938	-788.258239746094	-68.71943664550783	1420.208251953125	-807.5090332031252	205.0283966064454	1488.262573242188	-856.5427246093752	212.8578643798829	1504.684204101563	-788.332458496094	286.7433471679688	1519.704223632813	-859.7082519531252	-226.466049194336	1066.028442382813	-1167.807006835938	-255.9282531738282	1098.729248046875	-920.3692626953127	-411.4929809570314	1113.005615234375	-1061.86767578125	-420.6923828125001	1081.909545898438	-1087.235107421875	-424.7051696777345	1084.943237304688	-1031.294921875	-266.1003112792969	739.4481201171876	-1199.38134765625	-237.5632019042969	660.5573730468751	-1186.585815429688	-190.9923095703125	665.9206542968751	-1166.42138671875	-266.3777770996094	612.6422729492189	-1164.710205078125	-264.4389343261719	550.5737915039064	-1152.476806640625	-251.7731323242188	548.0575561523439	-1033.110229492188	-243.2696838378907	363.3926391601563	-1069.32666015625	-290.6009826660157	321.5276184082032	-1131.167846679688	-255.0644683837891	316.2203979492188	-1102.409545898438	-274.0148620605469	239.5216979980469	-1067.616577148438	-368.5564880371094	112.3809356689453	-1077.019409179688	-326.2444763183594	130.221176147461	-1008.171081542969	-416.992156982422	93.98507690429689	-1018.029663085938	-215.7262420654297	48.28686141967775	-1018.767333984375	-209.7557983398438	45.26882934570313	-1069.870483398438	-256.9239807128907	31.7572364807129	-1113.598388671875	-229.561264038086	840.2754516601565	-836.4043579101565	-173.6359252929688	804.5725097656252	-828.1772460937502	-143.909423828125	819.1833496093752	-834.681091308594	-167.4360504150391	718.5857543945314	-838.794372558594	-97.13032531738284	601.6063842773439	-835.2940673828127	-87.30657958984376	592.8782348632814	-955.5434570312502	23.70849418640137	464.0101013183595	-840.2064208984377	-10.77386665344238	359.3458251953126	-800.6051025390627	29.87143135070801	383.2766418457032	-807.446716308594	65.85409545898439	342.5951538085938	-830.2635498046877	64.93965911865236	204.9444122314454	-791.2307128906252	95.63154602050783	223.8839111328126	-869.0347900390627	42.97006988525391	133.63916015625	-855.587097167969	235.3475494384766	231.7234039306641	-829.3183593750002	226.4255523681641	235.4747924804688	-783.217956542969	195.5421600341797	197.4088287353516	-742.3713378906251	213.5563201904297	1480.286987304688	-1257.386352539063	
173	0.86	-251.1676330566407	1763.782958984375	-1093.887573242188	-404.7442321777345	1716.380859375	-1161.82763671875	-403.6885986328126	1702.487548828125	-1017.110900878906	-454.3966369628907	1528.142700195313	-1091.715454101563	-417.7838439941407	1248.107177734375	-1076.651489257813	-309.5450439453126	1522.271850585938	-1096.193481445313	-369.6133422851563	1551.966918945313	-1242.058349609375	-199.8017883300782	1486.99609375	-1363.942138671875	-172.922103881836	1521.0205078125	-1337.241577148438	-130.6945343017578	1493.182250976563	-1369.25634765625	-69.35413360595705	1494.7578125	-1367.436645507813	-61.73923110961915	1420.593872070313	-1343.356079101563	224.9046020507813	1498.227416992188	-1326.93359375	285.8370056152344	1511.866577148438	-1234.717651367188	-364.9015502929688	1545.024780273438	-951.324890136719	-213.8971862792969	1506.344970703125	-824.4522705078127	-176.0971374511719	1518.830322265625	-853.0341796875002	-147.2121276855469	1500.443237304688	-803.1945800781252	-74.86252593994142	1497.561157226563	-788.4007568359377	-69.00301361083986	1419.9755859375	-807.741882324219	204.7696075439454	1487.689819335938	-856.6075439453127	212.6419067382813	1504.378662109375	-788.454528808594	286.5247802734376	1519.092407226563	-859.525817871094	-226.8208465576172	1065.670776367188	-1168.091064453125	-255.8537139892579	1098.807861328125	-920.5938110351565	-411.5562438964845	1112.882690429688	-1061.779907226563	-420.8133850097657	1081.753051757813	-1087.0654296875	-424.6419067382814	1084.903198242188	-1031.095947265625	-266.3218078613282	739.4037475585939	-1199.611572265625	-237.7077331542969	660.5001220703126	-1187.01025390625	-190.9551391601563	665.8949584960939	-1166.9677734375	-266.4244079589844	612.6607666015626	-1165.054809570313	-264.4362182617188	550.5224609375001	-1152.826416015625	-251.3272857666016	547.9547729492189	-1033.463989257813	-243.1683349609376	363.3460693359376	-1069.643798828125	-290.5558776855469	321.4607849121094	-1131.444702148438	-255.2724761962891	315.4709167480469	-1102.766479492188	-273.9580078125001	239.461654663086	-1067.878662109375	-368.5343933105469	112.3430099487305	-1077.063842773438	-325.9040527343751	130.6016387939453	-1008.237487792969	-417.0164794921876	93.99433898925783	-1018.003540039063	-215.7128295898438	48.30158996582033	-1018.805480957031	-209.7787475585938	45.24639511108399	-1069.880004882813	-256.9102172851563	31.67500495910645	-1113.627685546875	-229.0364074707032	840.5915527343752	-836.4454345703127	-172.661117553711	805.2161865234377	-828.047546386719	-143.0316772460938	819.8948364257815	-834.607604980469	-166.1414489746094	719.1578979492189	-838.7584228515627	-95.39456176757814	602.5192871093751	-835.192565917969	-85.4487991333008	593.5747070312501	-955.5017089843752	26.11557579040528	465.2462768554689	-840.122009277344	-8.17587184906006	360.5207214355469	-800.5139770507815	32.33573150634766	384.5542907714845	-807.384216308594	68.37666320800783	344.0870666503907	-830.0567626953127	67.86032867431642	206.5388946533204	-791.0072021484377	98.60131835937503	225.6747131347657	-868.737731933594	46.13044357299805	134.9759674072266	-855.2229614257815	238.2316284179688	233.3361053466797	-829.113952636719	229.3741455078126	237.3916778564454	-783.2528076171877	198.6883850097657	199.2489318847657	-742.1136474609376	213.4899902343751	1480.223510742188	-1257.379150390625	
174	0.865	-251.3392639160157	1763.572631835938	-1094.087646484375	-405.0395507812501	1716.299560546875	-1162.088256835938	-403.8731689453126	1702.474609375	-1017.403259277344	-454.6007385253907	1527.994750976563	-1091.852294921875	-417.989959716797	1247.954711914063	-1076.716064453125	-309.7738952636719	1522.178100585938	-1096.423828125	-369.8456726074219	1551.856323242188	-1242.286987304688	-200.0061340332032	1486.824340820313	-1364.093872070313	-173.0719451904297	1520.915893554688	-1337.310424804688	-130.8806762695313	1493.134521484375	-1369.373413085938	-69.53071594238283	1494.672729492188	-1367.539428710938	-61.98447418212892	1420.472045898438	-1343.572509765625	224.6927490234376	1498.080322265625	-1326.917236328125	285.5582885742188	1511.670654296875	-1234.717895507813	-365.1000976562501	1544.978759765625	-951.510681152344	-214.1840515136719	1506.186645507813	-824.5601196289065	-176.3234100341797	1518.7578125	-853.1602172851565	-147.3459930419922	1500.333251953125	-803.371765136719	-75.07395935058595	1497.375	-788.5657958984377	-69.28415679931642	1419.882080078125	-807.8513793945315	204.6646423339844	1487.522094726563	-856.7739868164065	212.3834838867188	1504.104858398438	-788.544616699219	286.4786682128907	1519.041625976563	-859.9378662109377	-226.7833251953126	1066.089111328125	-1168.273315429688	-255.6812744140626	1098.924194335938	-920.8596191406252	-411.7430419921876	1112.876586914063	-1061.665405273438	-420.8268127441407	1081.6357421875	-1086.92724609375	-424.5115661621095	1084.823364257813	-1030.938842773438	-266.4349060058594	739.6721191406251	-1199.919189453125	-237.8868255615235	660.4957275390626	-1187.368530273438	-190.8328247070313	665.8925781250001	-1167.495361328125	-266.2282409667969	612.4803466796876	-1165.580688476563	-264.3580627441407	550.5317993164064	-1153.1884765625	-251.1143798828126	547.9475708007814	-1033.842651367188	-243.0425262451172	363.2322692871094	-1069.945678710938	-290.8364562988282	321.0047607421876	-1131.800537109375	-255.3598327636719	315.0852661132813	-1102.936401367188	-273.8728332519532	239.4000854492188	-1068.16162109375	-368.5111694335938	112.3231811523438	-1077.098388671875	-325.8665161132813	130.7234954833985	-1008.35009765625	-417.1654663085939	94.23890686035158	-1017.648498535156	-215.7400360107422	48.528621673584	-1018.88330078125	-209.7696838378907	45.28256607055665	-1069.986083984375	-257.3686828613282	31.94305992126466	-1113.652465820313	-228.2402038574219	840.8704223632815	-836.518737792969	-171.7933807373047	805.7437133789065	-828.0563964843752	-142.2499542236328	820.5502929687502	-834.4776000976565	-164.9319458007813	719.7836303710939	-838.6152343750002	-93.86807250976564	603.4749755859376	-835.127380371094	-83.64219665527345	594.4731445312501	-955.3465576171877	28.05741691589356	466.1665954589845	-840.0211181640627	-5.585043907165528	361.7424011230469	-800.480651855469	34.59987258911134	385.8000488281251	-807.1304931640627	70.84523010253908	345.1650085449219	-829.9766845703127	70.92259216308595	207.8686523437501	-790.6577148437502	101.2863388061524	227.1049957275391	-868.589294433594	49.5167579650879	136.19140625	-855.1350097656252	241.2495574951172	235.5242004394532	-828.9903564453127	232.2479400634766	239.2463684082032	-782.862487792969	201.5631866455079	201.1012115478516	-741.8716430664064	213.0235137939454	1480.723510742188	-1257.513916015625	
175	0.87	-251.5706329345704	1763.561279296875	-1094.576782226563	-405.3412170410157	1716.23486328125	-1162.310424804688	-404.1601867675782	1702.346923828125	-1017.651489257813	-454.7609863281251	1527.768188476563	-1091.998046875	-418.091522216797	1247.80419921875	-1076.74169921875	-310.0192565917969	1522.109008789063	-1096.632202148438	-370.0571899414063	1551.739013671875	-1242.443603515625	-200.1807556152344	1486.763427734375	-1364.216674804688	-173.2486572265625	1520.80517578125	-1337.413818359375	-131.017562866211	1493.054809570313	-1369.4970703125	-69.71157836914064	1494.57470703125	-1367.630126953125	-62.17026519775392	1420.36279296875	-1343.58740234375	224.5179138183594	1497.9501953125	-1326.903686523438	285.2651977539063	1511.553588867188	-1234.704956054688	-365.3486022949219	1544.872314453125	-951.702819824219	-214.3440093994141	1506.01220703125	-824.8022460937502	-176.5939331054688	1518.7158203125	-853.3085937500002	-147.5989990234375	1500.17236328125	-803.528991699219	-75.33776855468751	1497.228393554688	-788.7238769531252	-69.50524902343751	1419.777465820313	-807.9255981445315	204.4875488281251	1487.110961914063	-856.8474731445315	212.2278747558594	1503.80029296875	-788.665466308594	286.4029235839844	1518.675415039063	-859.9425048828127	-227.0545043945313	1066.036254882813	-1168.408569335938	-255.572250366211	1098.93603515625	-921.1303710937502	-411.7423706054689	1112.691528320313	-1061.612060546875	-420.8943176269532	1081.522216796875	-1086.7861328125	-424.2694396972657	1084.878784179688	-1030.728515625	-266.5554809570313	739.6713256835939	-1200.271362304688	-237.9776000976563	660.5111083984376	-1187.8046875	-190.801986694336	665.9558715820314	-1168.232788085938	-266.4185485839844	612.5626220703126	-1165.9013671875	-264.2679443359376	550.4943847656251	-1153.580444335938	-250.7377014160157	547.8796997070314	-1034.246704101563	-242.9287261962891	363.1441650390626	-1070.094482421875	-290.8436889648438	320.7920227050782	-1132.05029296875	-255.2562103271485	315.2107849121094	-1103.333129882813	-273.7680053710938	239.3320312500001	-1068.43603515625	-368.4891052246094	112.3453140258789	-1077.145263671875	-325.7544860839844	130.8524932861328	-1008.501342773438	-417.0157165527345	94.11246490478517	-1018.156494140625	-215.7028808593751	48.57883834838869	-1018.932678222656	-209.7689361572266	45.28388595581055	-1069.999267578125	-256.8967895507813	31.49408912658692	-1113.697631835938	-227.3939666748047	841.2131958007815	-836.4941406250002	-170.8122253417969	806.3216552734377	-828.1277465820315	-141.2593536376953	821.240417480469	-834.4829101562502	-163.705810546875	720.4058837890626	-838.464782714844	-92.06176757812501	604.2006835937501	-834.9691162109377	-81.96690368652345	595.2723388671876	-955.2081298828127	30.45089340209962	467.8206787109376	-840.0086669921877	-3.101285219192506	362.8333129882813	-800.1677856445315	37.01384735107423	387.1053771972657	-806.958679199219	73.42864227294923	346.6935729980469	-829.8565063476565	73.85339355468751	209.3235473632813	-790.6525878906252	104.2961120605469	228.6885986328126	-868.2534790039065	52.39611053466798	137.4447937011719	-854.6688232421877	243.9197540283204	237.5504150390626	-828.8103637695315	235.0852966308594	241.1602783203126	-782.8414306640627	204.6152801513672	202.9498596191407	-741.5569458007814	212.5964508056641	1480.329345703125	-1257.732788085938	
